<svg xmlns="http://www.w3.org/2000/svg" xmlns:xlink="http://www.w3.org/1999/xlink" width="500" zoomAndPan="magnify" viewBox="0 0 375 374.999991" height="500" preserveAspectRatio="xMidYMid meet" version="1.0"><defs><g/><clipPath id="fff772743b"><path d="M 109.710938 197 L 142 197 L 142 229.980469 L 109.710938 229.980469 Z M 109.710938 197 " clip-rule="nonzero"/></clipPath><clipPath id="590ec6386f"><path d="M 225 75 L 264.960938 75 L 264.960938 114 L 225 114 Z M 225 75 " clip-rule="nonzero"/></clipPath></defs><rect x="-37.5" width="450" fill="#ffffff" y="-37.499999" height="449.999989" fill-opacity="1"/><rect x="-37.5" width="450" fill="#4839f4" y="-37.499999" height="449.999989" fill-opacity="1"/><g clip-path="url(#fff772743b)"><path fill="#ffffff" d="M 112.933594 229.65625 C 112.109375 229.65625 111.285156 229.34375 110.652344 228.71875 C 109.394531 227.460938 109.394531 225.417969 110.652344 224.164062 L 136.421875 198.394531 C 137.675781 197.140625 139.71875 197.140625 140.972656 198.394531 C 142.230469 199.652344 142.230469 201.695312 140.972656 202.949219 L 115.207031 228.71875 C 114.582031 229.34375 113.757812 229.65625 112.933594 229.65625 Z M 112.933594 229.65625 " fill-opacity="1" fill-rule="nonzero"/></g><path fill="#ffffff" d="M 241.769531 145.914062 C 240.945312 145.914062 240.121094 145.597656 239.492188 144.972656 L 194.398438 99.878906 C 193.140625 98.625 193.140625 96.582031 194.398438 95.324219 C 195.652344 94.070312 197.695312 94.070312 198.953125 95.324219 L 244.046875 140.417969 C 245.300781 141.675781 245.300781 143.714844 244.046875 144.972656 C 243.421875 145.597656 242.59375 145.914062 241.769531 145.914062 Z M 241.769531 145.914062 " fill-opacity="1" fill-rule="nonzero"/><g clip-path="url(#590ec6386f)"><path fill="#ffffff" d="M 261.097656 113.703125 C 260.273438 113.703125 259.449219 113.386719 258.816406 112.761719 L 226.605469 80.554688 C 225.351562 79.296875 225.351562 77.253906 226.605469 76 C 227.863281 74.742188 229.90625 74.742188 231.160156 76 L 263.371094 108.207031 C 264.625 109.464844 264.625 111.507812 263.371094 112.761719 C 262.746094 113.386719 261.921875 113.703125 261.097656 113.703125 Z M 261.097656 113.703125 " fill-opacity="1" fill-rule="nonzero"/></g><path fill="#ffffff" d="M 219.222656 104.039062 C 218.398438 104.039062 217.574219 103.726562 216.945312 103.101562 C 215.6875 101.84375 215.6875 99.800781 216.945312 98.546875 L 233.046875 82.441406 C 234.304688 81.183594 236.347656 81.183594 237.601562 82.441406 C 238.859375 83.695312 238.859375 85.738281 237.601562 86.996094 L 221.5 103.101562 C 220.875 103.726562 220.050781 104.039062 219.222656 104.039062 Z M 219.222656 104.039062 " fill-opacity="1" fill-rule="nonzero"/><path fill="#ffffff" d="M 238.550781 123.367188 C 237.726562 123.367188 236.902344 123.050781 236.269531 122.425781 C 235.011719 121.167969 235.011719 119.128906 236.269531 117.871094 L 252.375 101.765625 C 253.628906 100.511719 255.671875 100.511719 256.929688 101.765625 C 258.183594 103.023438 258.183594 105.066406 256.929688 106.320312 L 240.824219 122.425781 C 240.199219 123.050781 239.375 123.367188 238.550781 123.367188 Z M 238.550781 123.367188 " fill-opacity="1" fill-rule="nonzero"/><path fill="#ffffff" d="M 237.609375 133.96875 C 236.351562 132.714844 234.3125 132.714844 233.054688 133.96875 L 205.398438 106.316406 C 206.65625 105.058594 206.65625 103.015625 205.398438 101.761719 C 204.144531 100.503906 202.101562 100.503906 200.84375 101.761719 L 129.984375 172.621094 C 129.1875 173.421875 128.863281 174.578125 129.140625 175.679688 L 135.582031 201.449219 C 135.867188 202.601562 136.769531 203.503906 137.921875 203.792969 L 163.6875 210.234375 C 163.945312 210.300781 164.203125 210.332031 164.46875 210.332031 C 165.3125 210.332031 166.136719 209.996094 166.75 209.390625 L 237.609375 138.53125 C 238.867188 137.269531 238.867188 135.234375 237.609375 133.96875 Z M 157.085938 177.183594 C 156.453125 177.808594 155.628906 178.121094 154.804688 178.121094 C 153.980469 178.121094 153.15625 177.808594 152.523438 177.183594 L 146.082031 170.742188 C 144.828125 169.484375 144.828125 167.441406 146.082031 166.1875 C 147.339844 164.929688 149.382812 164.929688 150.636719 166.1875 L 157.078125 172.628906 C 158.34375 173.882812 158.34375 175.917969 157.085938 177.183594 Z M 166.75 164.296875 C 166.117188 164.921875 165.292969 165.238281 164.46875 165.238281 C 163.644531 165.238281 162.820312 164.921875 162.1875 164.296875 L 155.746094 157.855469 C 154.488281 156.601562 154.488281 154.558594 155.746094 153.300781 C 157 152.046875 159.042969 152.046875 160.300781 153.300781 L 166.742188 159.742188 C 168.003906 161 168.003906 163.035156 166.75 164.296875 Z M 179.632812 154.636719 C 179 155.261719 178.175781 155.574219 177.351562 155.574219 C 176.527344 155.574219 175.703125 155.261719 175.070312 154.636719 L 168.628906 148.195312 C 167.375 146.9375 167.375 144.894531 168.628906 143.640625 C 169.886719 142.382812 171.929688 142.382812 173.183594 143.640625 L 179.625 150.082031 C 180.886719 151.335938 180.886719 153.371094 179.632812 154.636719 Z M 189.296875 141.75 C 188.664062 142.375 187.839844 142.691406 187.015625 142.691406 C 186.191406 142.691406 185.367188 142.375 184.734375 141.75 L 178.292969 135.308594 C 177.035156 134.054688 177.035156 132.011719 178.292969 130.753906 C 179.546875 129.5 181.589844 129.5 182.847656 130.753906 L 189.289062 137.199219 C 190.550781 138.453125 190.550781 140.488281 189.296875 141.75 Z M 202.222656 132.039062 C 201.59375 132.667969 200.769531 132.976562 199.945312 132.976562 C 199.117188 132.976562 198.292969 132.664062 197.664062 132.039062 L 191.273438 125.648438 C 190.015625 124.390625 190.015625 122.347656 191.273438 121.09375 C 192.527344 119.835938 194.570312 119.835938 195.828125 121.09375 L 202.21875 127.484375 C 203.488281 128.738281 203.488281 130.773438 202.222656 132.039062 Z M 202.222656 132.039062 " fill-opacity="1" fill-rule="nonzero"/><g fill="#ffffff" fill-opacity="1"><g transform="translate(35.792752, 285.694124)"><g><path d="M 23.144531 -27.925781 L 33.175781 -27.925781 C 33.175781 -37.3125 25.304688 -41.394531 18.015625 -41.394531 C 9.328125 -41.394531 1.980469 -36.03125 2.449219 -27.050781 L 2.449219 -27.109375 C 3.207031 -17.722656 11.019531 -16.265625 17.609375 -15.625 C 19.125 -15.449219 23.789062 -15.332031 23.789062 -12.417969 C 23.789062 -10.085938 21.164062 -9.152344 17.898438 -9.152344 C 15.625 -9.152344 12.242188 -9.910156 12.242188 -13.933594 L 2.15625 -13.933594 C 2.15625 -3.554688 11.195312 0.523438 17.839844 0.523438 C 25.59375 0.523438 33.875 -4.371094 33.875 -12.886719 C 33.875 -13.757812 33.757812 -14.808594 33.582031 -15.742188 C 31.832031 -23.089844 24.546875 -24.605469 18.773438 -25.363281 C 17.433594 -25.476562 12.59375 -25.535156 12.59375 -28.570312 C 12.59375 -30.785156 14.75 -32.125 17.839844 -32.125 C 20.929688 -32.125 23.144531 -30.667969 23.144531 -27.925781 Z M 23.144531 -27.925781 "/></g></g></g><g fill="#ffffff" fill-opacity="1"><g transform="translate(72.290368, 285.694124)"><g><path d="M 20.988281 0.0585938 L 20.699219 -7.519531 C 19.882812 -7.347656 18.949219 -7.230469 18.074219 -7.230469 C 15.859375 -7.230469 13.816406 -8.105469 13.816406 -10.902344 L 13.816406 -23.320312 L 20.40625 -23.320312 L 20.40625 -31.191406 L 13.816406 -31.191406 L 13.816406 -38.011719 L 4.664062 -37.199219 L 4.664062 -31.191406 L 0.523438 -31.191406 L 0.523438 -23.320312 L 4.664062 -23.320312 L 4.664062 -10.902344 C 4.664062 -2.742188 8.863281 0.523438 15.800781 0.523438 C 17.375 0.523438 19.125 0.351562 20.988281 0.0585938 Z M 20.988281 0.0585938 "/></g></g></g><g fill="#ffffff" fill-opacity="1"><g transform="translate(96.486069, 285.694124)"><g><path d="M 1.28125 -38.480469 C 1.28125 -35.039062 4.082031 -33.347656 6.878906 -33.347656 C 9.5625 -33.347656 12.300781 -35.039062 12.300781 -38.480469 C 12.300781 -42.09375 9.503906 -43.84375 6.703125 -43.84375 C 4.023438 -43.84375 1.28125 -42.035156 1.28125 -38.480469 Z M 2.15625 -31.542969 L 11.484375 -31.542969 L 11.484375 0 L 2.15625 0 Z M 2.15625 -31.542969 "/></g></g></g><g fill="#ffffff" fill-opacity="1"><g transform="translate(112.111251, 285.694124)"><g><path d="M 11.367188 -28.394531 L 11.367188 -31.542969 L 2.097656 -31.542969 L 2.097656 0 L 11.835938 0 L 11.835938 -17.839844 C 11.835938 -21.339844 14.691406 -22.972656 16.964844 -22.972656 C 19.125 -22.972656 20.988281 -21.570312 20.988281 -17.722656 L 20.988281 0 L 30.257812 0 L 30.257812 -17.957031 C 30.316406 -21.398438 33.582031 -22.972656 35.855469 -22.972656 C 38.011719 -22.972656 39.878906 -21.570312 39.878906 -17.722656 L 39.878906 0 L 49.148438 0 L 49.148438 -17.78125 C 49.265625 -28.101562 44.136719 -31.949219 37.898438 -31.949219 C 34.339844 -31.949219 30.144531 -30.609375 28.101562 -27.808594 C 26.585938 -30.257812 24.195312 -32.007812 20.40625 -32.007812 C 17.082031 -32.007812 13.527344 -31.132812 11.367188 -28.394531 Z M 11.367188 -28.394531 "/></g></g></g><g fill="#ffffff" fill-opacity="1"><g transform="translate(165.400101, 285.694124)"><g><path d="M 19.007812 0.523438 C 29.269531 0.523438 34.28125 -6.703125 34.28125 -15.332031 C 34.28125 -24.019531 29.09375 -31.949219 19.125 -31.949219 C 16.089844 -31.949219 13 -31.074219 10.84375 -28.394531 L 10.84375 -31.542969 L 1.75 -31.542969 L 1.75 9.210938 L 10.84375 9.210938 L 10.84375 -2.914062 C 12.941406 -0.523438 15.917969 0.523438 19.007812 0.523438 Z M 18.015625 -23.144531 C 22.679688 -23.144531 25.070312 -19.355469 25.070312 -15.566406 C 25.070312 -11.777344 22.738281 -7.929688 18.015625 -7.929688 C 14.050781 -7.929688 10.84375 -11.367188 10.84375 -15.566406 C 10.84375 -19.765625 14.050781 -23.144531 18.015625 -23.144531 Z M 18.015625 -23.144531 "/></g></g></g><g fill="#ffffff" fill-opacity="1"><g transform="translate(203.296986, 285.694124)"><g><path d="M 16.089844 -32.066406 C 5.832031 -32.066406 0.816406 -24.835938 0.816406 -16.207031 C 0.816406 -7.519531 6.003906 0.40625 15.976562 0.40625 C 19.007812 0.40625 22.097656 -0.464844 24.253906 -3.148438 L 24.253906 0 L 33.40625 0 L 33.40625 -31.542969 L 24.253906 -31.542969 L 24.253906 -28.277344 C 22.214844 -30.902344 19.183594 -32.066406 16.089844 -32.066406 Z M 17.082031 -8.394531 C 12.417969 -8.394531 10.027344 -12.183594 10.027344 -15.976562 C 10.027344 -19.824219 12.359375 -23.613281 17.082031 -23.613281 C 21.046875 -23.613281 24.253906 -20.171875 24.253906 -15.976562 C 24.253906 -11.777344 21.046875 -8.394531 17.082031 -8.394531 Z M 17.082031 -8.394531 "/></g></g></g><g fill="#ffffff" fill-opacity="1"><g transform="translate(240.785753, 285.694124)"><g><path d="M 32.53125 -13.410156 L 23.4375 -13.410156 C 22.386719 -9.910156 19.53125 -8.277344 16.734375 -8.277344 C 13.234375 -8.277344 9.738281 -10.84375 9.738281 -15.800781 C 9.738281 -20.753906 13.234375 -23.320312 16.734375 -23.320312 C 19.53125 -23.320312 22.386719 -21.628906 23.4375 -18.132812 L 32.53125 -18.132812 C 31.308594 -27.402344 24.019531 -31.949219 16.734375 -31.949219 C 8.746094 -31.949219 0.757812 -26.46875 0.757812 -15.800781 C 0.757812 -5.128906 8.746094 0.351562 16.734375 0.351562 C 24.019531 0.351562 31.308594 -4.199219 32.53125 -13.410156 Z M 32.53125 -13.410156 "/></g></g></g><g fill="#ffffff" fill-opacity="1"><g transform="translate(276.583741, 285.694124)"><g><path d="M 18.949219 -15.859375 L 29.617188 -31.074219 L 29.617188 -31.542969 L 19.589844 -31.542969 L 10.902344 -19.125 L 10.902344 -40.8125 L 1.75 -40.8125 L 1.75 0 L 10.902344 0 L 10.902344 -12.300781 L 19.941406 0 L 30.667969 0 L 30.667969 -0.40625 Z M 18.949219 -15.859375 "/></g></g></g><g fill="#ffffff" fill-opacity="1"><g transform="translate(309.17507, 285.694124)"><g><path d="M 1.167969 -21.398438 C 1.167969 -14.460938 7.347656 -12.183594 13.292969 -11.660156 C 14.808594 -11.542969 18.308594 -11.835938 18.308594 -9.5625 C 18.308594 -8.511719 16.792969 -7.636719 14.515625 -7.636719 C 12.359375 -7.636719 9.96875 -8.453125 9.910156 -10.609375 L 0.699219 -10.609375 C 0.816406 -2.566406 6.53125 0.816406 14.050781 0.816406 C 21.046875 0.816406 27.519531 -1.867188 27.519531 -9.792969 C 27.519531 -17.257812 20.8125 -20.054688 14.226562 -20.230469 C 12.886719 -20.289062 10.4375 -20.347656 10.4375 -21.980469 C 10.4375 -23.671875 12.300781 -24.136719 13.644531 -24.136719 C 15.566406 -24.136719 18.015625 -23.960938 18.074219 -21.515625 L 26.878906 -21.515625 C 26.820312 -28.859375 20.929688 -32.300781 14.167969 -32.300781 C 7.113281 -32.300781 1.167969 -29.035156 1.167969 -21.398438 Z M 1.167969 -21.398438 "/></g></g></g></svg>